<?xml version="1.0" encoding="UTF-8"?>
<svg xmlns="http://www.w3.org/2000/svg" viewBox="0 0 96 96" width="512" height="512"><g id="Layer_40" data-name="Layer 40"><path d="M17.64,61.93h-5a1,1,0,0,0-1,1v5a1,1,0,0,0,1,1h5a1,1,0,0,0,1-1v-5A1,1,0,0,0,17.64,61.93Zm-1,5h-3v-3h3Zm24.25-5h-5a1,1,0,0,0-1,1v5a1,1,0,0,0,1,1h5a1,1,0,0,0,1-1v-5A1,1,0,0,0,40.89,61.93Zm-1,5h-3v-3h3ZM94.52,40.8a9.85,9.85,0,0,0-2.9-7L89.77,32V29.32a9.94,9.94,0,0,0-9.93-9.92l-2.59,0-1.87-1.87a9.91,9.91,0,0,0-14,0L59.53,19.4H56.88a9.83,9.83,0,0,0-3.05.48,1,1,0,1,0,.62,1.9,8,8,0,0,1,2.43-.38h2.65a2,2,0,0,0,1.36-.56L62.76,19A7.92,7.92,0,0,1,74,19l1.88,1.87a1.87,1.87,0,0,0,1.36.57h2.64a7.93,7.93,0,0,1,7.93,7.92V32a1.92,1.92,0,0,0,.56,1.36L90.2,35.2a7.93,7.93,0,0,1,0,11.21l-1.87,1.87a1.92,1.92,0,0,0-.56,1.36v2.64a7.94,7.94,0,0,1-7.93,7.93H77.2a1.9,1.9,0,0,0-1.36.56L74,62.64a7.92,7.92,0,0,1-11.2,0l-1.87-1.87a1.94,1.94,0,0,0-1.36-.56H56.88A7.93,7.93,0,0,1,49,52.28V49.64a2,2,0,0,0-.56-1.36l-1.88-1.87a7.88,7.88,0,0,1-1.72-2.58s0,0,0,0a7.92,7.92,0,0,1,1.73-8.6l1.87-1.87A1.89,1.89,0,0,0,49,32V29.32a7.93,7.93,0,0,1,.13-1.46,1,1,0,0,0-.79-1.17,1,1,0,0,0-1.17.8A10.21,10.21,0,0,0,47,29.32l0,2.59-1.87,1.88a9.84,9.84,0,0,0-2.77,5.41H7A2.7,2.7,0,0,0,4.3,41.89V44.1L2.76,51.88a4.81,4.81,0,0,0,4.3,5.72V75.36H4.48a3,3,0,0,0,0,6H49a3,3,0,0,0,0-6H46.44V57.58a4.69,4.69,0,0,0,1.76-.5,9.93,9.93,0,0,0,8.68,5.13h0v16.7a1,1,0,0,0,.51.87,1,1,0,0,0,1,0L68,74.08l9.59,5.69a.94.94,0,0,0,.51.14,1,1,0,0,0,.49-.13,1,1,0,0,0,.51-.87V62.21h.73a10,10,0,0,0,9.93-9.93l0-2.59,1.87-1.87A9.86,9.86,0,0,0,94.52,40.8ZM6.3,41.89A.69.69,0,0,1,7,41.2H42.22a9.56,9.56,0,0,0,.29,2H6.3ZM41.13,52.45a2.78,2.78,0,0,1-.67,2.21,2.85,2.85,0,0,1-5-1.66L35,45.2h5.2Zm-28.76,0h0l1-7.24h5.2L18,53a2.83,2.83,0,0,1-2.87,2.62,2.81,2.81,0,0,1-2.78-3.17Zm7.68.18h0l.49-7.43h5.21v7.61a2.84,2.84,0,0,1-2.91,2.81,2.82,2.82,0,0,1-2.8-3Zm7.7-7.43H33l.49,7.43a2.73,2.73,0,0,1-.75,2.1,2.87,2.87,0,0,1-5-1.92Zm-23,7.07L6.13,45.2h5.18l-1.06,8a2.81,2.81,0,0,1-2.78,2.44,2.75,2.75,0,0,1-2.16-1A2.79,2.79,0,0,1,4.72,52.27ZM50,78.36a1,1,0,0,1-1,1H4.48a1,1,0,0,1,0-2H49A1,1,0,0,1,50,78.36Zm-19.72-3H23.2V63.93h7.1Zm2,0V62.93a1,1,0,0,0-1-1H22.2a1,1,0,0,0-1,1V75.36H9.06v-18a4.8,4.8,0,0,0,2.25-1.64,3.11,3.11,0,0,0,.23.28A4.86,4.86,0,0,0,19,55.73c.1.13.2.25.31.37a4.9,4.9,0,0,0,7.41-.36,4.93,4.93,0,0,0,3.91,1.88,4.79,4.79,0,0,0,3.5-1.52,3.57,3.57,0,0,0,.31-.37,4.88,4.88,0,0,0,3.88,1.89A4.81,4.81,0,0,0,42,56a3.11,3.11,0,0,0,.23-.28,4.8,4.8,0,0,0,2.25,1.64v18ZM46,55.62a2.81,2.81,0,0,1-2.78-2.44l-.14-1h0l-.92-7h1.05a9.74,9.74,0,0,0,1.87,2.62L47,49.64v2.64a10.07,10.07,0,0,0,.45,3A2.88,2.88,0,0,1,46,55.62ZM58.9,62.19h.57l1.43,1.43V76l-2,1.19Zm8.6,9.86-4.6,2.73V65.33a9.95,9.95,0,0,0,10.21.42v9l-4.59-2.73A1,1,0,0,0,67.5,72.05ZM75.11,76V64.3l.27-.25,1.73-1.76V77.16ZM47.94,36.61a5.93,5.93,0,0,0,0,8.38l1.87,1.87A3.91,3.91,0,0,1,51,49.64v2.64a5.93,5.93,0,0,0,5.92,5.93h2.65a3.88,3.88,0,0,1,2.77,1.14l1.87,1.88a5.94,5.94,0,0,0,8.38,0l1.87-1.88a3.9,3.9,0,0,1,2.78-1.14h2.64a5.94,5.94,0,0,0,5.93-5.93V49.64a3.87,3.87,0,0,1,1.15-2.78L88.79,45a5.93,5.93,0,0,0,0-8.38l-1.87-1.87A4,4,0,0,1,85.77,32V29.32a5.93,5.93,0,0,0-5.93-5.92H77.2a3.91,3.91,0,0,1-2.78-1.15l-1.87-1.87a5.91,5.91,0,0,0-8.38,0L62.3,22.25a3.89,3.89,0,0,1-2.77,1.15H56.88A5.93,5.93,0,0,0,51,29.32V32a4,4,0,0,1-1.15,2.77Zm3.28-.45A6,6,0,0,0,53,32V29.32a3.93,3.93,0,0,1,3.92-3.92h2.65a5.89,5.89,0,0,0,4.19-1.74l1.87-1.87a4,4,0,0,1,5.55,0L73,23.66A5.88,5.88,0,0,0,77.2,25.4h2.64a3.93,3.93,0,0,1,3.93,3.92V32a6,6,0,0,0,1.73,4.19L87.37,38a3.93,3.93,0,0,1,0,5.55L85.5,45.45a5.87,5.87,0,0,0-1.73,4.19v2.64a3.93,3.93,0,0,1-3.93,3.93H77.2A5.88,5.88,0,0,0,73,57.94l-1.87,1.87a4,4,0,0,1-5.55,0l-1.87-1.87a5.88,5.88,0,0,0-4.19-1.73H56.88A3.93,3.93,0,0,1,53,52.28V49.64a5.88,5.88,0,0,0-1.74-4.19l-1.87-1.87a3.93,3.93,0,0,1,0-5.55ZM48.93,23.55a1,1,0,1,1,1,1A1,1,0,0,1,48.93,23.55ZM63.53,38,65,37.36v9.9H63.86a3,3,0,0,0,0,6h8.25a3,3,0,0,0,0-6H71V32.77a3.2,3.2,0,0,0-4.59-2.88L61,32.53a3,3,0,0,0-1.38,4.11A3,3,0,0,0,63.53,38Zm-2.21-3.09a1,1,0,0,1,.53-.6l5.44-2.64A1.19,1.19,0,0,1,69,32.77V48.26a1,1,0,0,0,1,1h2.1a1,1,0,0,1,0,2H63.86a1,1,0,0,1,0-2H66a1,1,0,0,0,1-1V35.81a1,1,0,0,0-.46-.84,1,1,0,0,0-1-.07l-2.88,1.29a1,1,0,0,1-1.34-.47A1,1,0,0,1,61.32,34.93Zm14.54-2a3.27,3.27,0,1,0-3.27-3.27A3.27,3.27,0,0,0,75.86,32.94Zm0-4.53a1.27,1.27,0,1,1-1.27,1.26A1.27,1.27,0,0,1,75.86,28.41Z"/></g></svg>
