<?xml version="1.0" encoding="UTF-8"?>
<svg xmlns="http://www.w3.org/2000/svg" viewBox="0 0 96 96" width="512" height="512"><g id="Layer_18" data-name="Layer 18"><path d="M94.44,46.18A46.5,46.5,0,0,0,9.26,22.25L7.82,16.89a3,3,0,0,0-5.9.76,2.72,2.72,0,0,0,.11.78L5.89,32.84a1,1,0,0,0,1.22.7l8.22-2.2V70.51a1,1,0,0,0,1,1H79.67a1,1,0,0,0,1-1V28.66a1,1,0,0,0-1-1H24.12a3,3,0,0,0-2.8-4,2.9,2.9,0,0,0-.79.1l-6.11,1.63a40.47,40.47,0,1,1-6.9,24.46,3,3,0,0,0-5.16-1.9,3,3,0,0,0-.84,2.22,46.5,46.5,0,0,0,92.92-4ZM78.67,69.51H17.33V30.81l4.3-1.15h57ZM80,78.85A44.5,44.5,0,0,1,3.52,50.06a1,1,0,0,1,.28-.75A1,1,0,0,1,4.53,49a1,1,0,0,1,1,.92,42.56,42.56,0,1,0,5.83-23.43A1,1,0,0,0,12.47,28l8.58-2.3a1,1,0,0,1,1.22.71,1,1,0,0,1-.1.76,1,1,0,0,1-.6.46l-14,3.75L4,17.89a.86.86,0,0,1,0-.24,1,1,0,0,1,2-.25l2,7.58a1,1,0,0,0,.83.73,1,1,0,0,0,1-.48A44.5,44.5,0,1,1,80,78.85ZM47.92,62.12A12.54,12.54,0,1,0,35.37,49.58,12.55,12.55,0,0,0,47.92,62.12Zm0-23.08A10.54,10.54,0,1,1,37.37,49.58,10.55,10.55,0,0,1,47.92,39ZM43.67,54.35v-.64a1,1,0,1,1,2,0v.64a.08.08,0,0,0,.08.09h4.5a.09.09,0,0,0,.08-.09V50.87a.18.18,0,0,0-.19-.18H45.85a2.19,2.19,0,0,1-2.18-2.19v-3a2.08,2.08,0,0,1,2.08-2.08H47V41.92a1,1,0,0,1,2,0v1.52h1.25a2.08,2.08,0,0,1,2.08,2.08V46a1,1,0,0,1-2,0v-.5a.08.08,0,0,0-.08-.08h-4.5a.07.07,0,0,0-.08.08v3a.19.19,0,0,0,.18.19h4.29a2.19,2.19,0,0,1,2.19,2.18v3.48a2.09,2.09,0,0,1-2.08,2.09H49v1.5a1,1,0,0,1-2,0v-1.5H45.75A2.09,2.09,0,0,1,43.67,54.35ZM20.33,31.66a1,1,0,0,0-1,1V66.51a1,1,0,0,0,1,1H75.67a1,1,0,0,0,1-1V32.66a1,1,0,0,0-1-1H40.81a1,1,0,0,0,0,2H68.22a7.53,7.53,0,0,0,6.45,6.44v19a7.53,7.53,0,0,0-6.45,6.45H27.78a7.53,7.53,0,0,0-6.45-6.45v-19a7.53,7.53,0,0,0,6.45-6.44h3.36a1,1,0,1,0,0-2Zm49.91,2h4.43v4.42A5.52,5.52,0,0,1,70.24,33.66Zm4.43,27.42v4.43H70.24A5.52,5.52,0,0,1,74.67,61.08ZM25.76,65.51H21.33V61.08A5.52,5.52,0,0,1,25.76,65.51ZM21.33,38.08V33.66h4.43A5.52,5.52,0,0,1,21.33,38.08ZM35,32.66a1,1,0,0,1,2,0,1,1,0,0,1-2,0Z"/></g></svg>
