<svg height="512" viewBox="0 0 96 96" width="512" xmlns="http://www.w3.org/2000/svg"><g id="Layer_26" data-name="Layer 26"><path d="m79.71 18.93a6.71 6.71 0 0 1 -5.51-6.6c0-.24 0-.48 0-.71a2.78 2.78 0 0 0 -1.94-3l-22.55-6.86a5.7 5.7 0 0 0 -3.42 0l-22.59 6.89a2.78 2.78 0 0 0 -1.94 3v.72a6.71 6.71 0 0 1 -5.51 6.6 2.73 2.73 0 0 0 -2.2 2.72v12.22a71.56 71.56 0 0 0 32.76 60.24 2.2 2.2 0 0 0 2.38 0 71.56 71.56 0 0 0 32.72-60.24v-12.26a2.73 2.73 0 0 0 -2.2-2.72zm.2 15a69.58 69.58 0 0 1 -31.8 58.56.2.2 0 0 1 -.21 0 69.57 69.57 0 0 1 -31.81-58.58v-12.26a.75.75 0 0 1 .56-.76 8.7 8.7 0 0 0 7.15-8.56c0-.32 0-.63-.05-.93a.78.78 0 0 1 .53-.84l22.59-6.89a3.84 3.84 0 0 1 2.26 0l22.58 6.89a.78.78 0 0 1 .54.84v.93a8.7 8.7 0 0 0 7.15 8.56.75.75 0 0 1 .56.76zm-2.66-11.54a10.66 10.66 0 0 1 -7-9.5 1 1 0 0 0 -.71-.91l-21-6.4a1.81 1.81 0 0 0 -1.08 0l-21 6.4a1 1 0 0 0 -.71.91 10.66 10.66 0 0 1 -7 9.5 1 1 0 0 0 -.66.94v10.58a67.79 67.79 0 0 0 29.34 55.85 1 1 0 0 0 1.14 0 67.79 67.79 0 0 0 29.34-55.85v-10.58a1 1 0 0 0 -.66-.94zm-1.34 11.52a65.78 65.78 0 0 1 -26.91 53.09v-7.37a1 1 0 0 0 -2 0v7.37a65.76 65.76 0 0 1 -26.91-53.09v-9.91a12.66 12.66 0 0 0 7.63-10.32l19.28-5.89v4a1 1 0 1 0 2 0v-4l19.28 5.91a12.66 12.66 0 0 0 7.63 10.3zm-9.41 8.26a18.5 18.5 0 1 1 -34.5-9.31 1 1 0 0 1 1.73 1 16.48 16.48 0 1 0 6.78-6.41 1 1 0 1 1 -.91-1.78 18.24 18.24 0 0 1 8.39-2 18.52 18.52 0 0 1 18.51 18.5zm-18.5 14.5a14.5 14.5 0 1 0 -14.5-14.5 14.52 14.52 0 0 0 14.5 14.5zm0-27a12.5 12.5 0 1 1 -12.5 12.5 12.51 12.51 0 0 1 12.5-12.5zm-5.56 19a3.84 3.84 0 0 0 3 1.52h.06a3.85 3.85 0 0 0 3-1.43l6.92-8.55a3 3 0 0 0 -4.67-3.77l-5.22 6.45-.71-.94a3 3 0 0 0 -4.77 3.65zm-.58-5.67a1 1 0 0 1 1.4.19l1.49 1.94a1 1 0 0 0 .78.39 1 1 0 0 0 .79-.37l6-7.43a1 1 0 0 1 1.55 1.25l-6.87 8.51a1.78 1.78 0 0 1 -1.49.69 1.82 1.82 0 0 1 -1.51-.73l-2.36-3.08a1 1 0 0 1 -.2-.74 1 1 0 0 1 .42-.62zm7.14 30.81a1 1 0 1 1 -1-1 1 1 0 0 1 1 1zm0-5a1 1 0 1 1 -1-1 1 1 0 0 1 1 1zm-2-52.81a1 1 0 1 1 1 1 1 1 0 0 1 -1-1zm0 5a1 1 0 1 1 1 1 1 1 0 0 1 -1-1zm-12.13 8.5a1 1 0 1 1 1 1 1 1 0 0 1 -1-1z"/></g></svg>